<svg width="100" height="100" viewBox="0 0 100 100" fill="none" xmlns="http://www.w3.org/2000/svg">
<rect width="100" height="100" fill="white"/>
<rect x="6.5" y="44.5" width="69" height="19" rx="9.5" fill="black" stroke="white"/>
<path d="M19.5 54C19.5 56.6714 18.7412 59.0685 17.5401 60.7843C16.3379 62.5018 14.7251 63.5 13 63.5C11.2749 63.5 9.66207 62.5018 8.45987 60.7843C7.25877 59.0685 6.5 56.6714 6.5 54C6.5 51.3286 7.25877 48.9315 8.45987 47.2157C9.66207 45.4982 11.2749 44.5 13 44.5C14.7251 44.5 16.3379 45.4982 17.5401 47.2157C18.7412 48.9315 19.5 51.3286 19.5 54Z" fill="black" stroke="white"/>
<rect x="12.5" y="34.5" width="69" height="19" rx="9.5" fill="black" stroke="white"/>
<path d="M25.5 44C25.5 46.6714 24.7412 49.0685 23.5401 50.7843C22.3379 52.5018 20.7251 53.5 19 53.5C17.2749 53.5 15.6621 52.5018 14.4599 50.7843C13.2588 49.0685 12.5 46.6714 12.5 44C12.5 41.3286 13.2588 38.9315 14.4599 37.2157C15.6621 35.4982 17.2749 34.5 19 34.5C20.7251 34.5 22.3379 35.4982 23.5401 37.2157C24.7412 38.9315 25.5 41.3286 25.5 44Z" fill="black" stroke="white"/>
<rect x="16.5" y="24.5" width="69" height="19" rx="9.5" fill="black" stroke="white"/>
<path d="M29.5 34C29.5 36.6714 28.7412 39.0685 27.5401 40.7843C26.3379 42.5018 24.7251 43.5 23 43.5C21.2749 43.5 19.6621 42.5018 18.4599 40.7843C17.2588 39.0685 16.5 36.6714 16.5 34C16.5 31.3286 17.2588 28.9315 18.4599 27.2157C19.6621 25.4982 21.2749 24.5 23 24.5C24.7251 24.5 26.3379 25.4982 27.5401 27.2157C28.7412 28.9315 29.5 31.3286 29.5 34Z" fill="black" stroke="white"/>
<rect x="15.5" y="51.5" width="69" height="19" rx="9.5" fill="black" stroke="white"/>
<path d="M28.5 61C28.5 63.6714 27.7412 66.0685 26.5401 67.7843C25.3379 69.5018 23.7251 70.5 22 70.5C20.2749 70.5 18.6621 69.5018 17.4599 67.7843C16.2588 66.0685 15.5 63.6714 15.5 61C15.5 58.3286 16.2588 55.9315 17.4599 54.2157C18.6621 52.4982 20.2749 51.5 22 51.5C23.7251 51.5 25.3379 52.4982 26.5401 54.2157C27.7412 55.9315 28.5 58.3286 28.5 61Z" fill="black" stroke="white"/>
<rect x="21.5" y="41.5" width="69" height="19" rx="9.5" fill="black" stroke="white"/>
<path d="M34.5 51C34.5 53.6714 33.7412 56.0685 32.5401 57.7843C31.3379 59.5018 29.7251 60.5 28 60.5C26.2749 60.5 24.6621 59.5018 23.4599 57.7843C22.2588 56.0685 21.5 53.6714 21.5 51C21.5 48.3286 22.2588 45.9315 23.4599 44.2157C24.6621 42.4982 26.2749 41.5 28 41.5C29.7251 41.5 31.3379 42.4982 32.5401 44.2157C33.7412 45.9315 34.5 48.3286 34.5 51Z" fill="black" stroke="white"/>
<rect x="25.5" y="57.5" width="69" height="19" rx="9.5" fill="black" stroke="white"/>
<path d="M38.5 67C38.5 69.6714 37.7412 72.0685 36.5401 73.7843C35.3379 75.5018 33.7251 76.5 32 76.5C30.2749 76.5 28.6621 75.5018 27.4599 73.7843C26.2588 72.0685 25.5 69.6714 25.5 67C25.5 64.3286 26.2588 61.9315 27.4599 60.2157C28.6621 58.4982 30.2749 57.5 32 57.5C33.7251 57.5 35.3379 58.4982 36.5401 60.2157C37.7412 61.9315 38.5 64.3286 38.5 67Z" fill="black" stroke="white"/>
</svg>
